<?xml version="1.0" standalone="no"?>
<!DOCTYPE svg PUBLIC "-//W3C//DTD SVG 20010904//EN"
 "http://www.w3.org/TR/2001/REC-SVG-20010904/DTD/svg10.dtd">
<svg version="1.0" xmlns="http://www.w3.org/2000/svg"
 width="16.000000pt" height="16.000000pt" viewBox="0 0 16.000000 16.000000"
 preserveAspectRatio="xMidYMid meet">
<metadata>
Created by potrace 1.11, written by Peter Selinger 2001-2013
</metadata>
<g transform="translate(0.000000,16.000000) scale(0.002286,-0.002286)"
fill="#000000" stroke="none">
<path d="M4053 5916 c-39 -18 -63 -62 -96 -181 -23 -85 -165 -575 -264 -915
-62 -213 -104 -359 -113 -395 -5 -16 -36 -124 -70 -240 -71 -242 -89 -304 -94
-325 -3 -8 -39 -134 -81 -280 -42 -146 -101 -348 -130 -450 -29 -102 -79 -273
-110 -380 -31 -107 -58 -202 -60 -210 -2 -8 -13 -46 -25 -85 -11 -38 -22 -77
-24 -85 -2 -8 -24 -85 -49 -170 -25 -85 -94 -321 -152 -525 -59 -203 -124
-428 -145 -500 -20 -71 -40 -139 -43 -150 -3 -11 -20 -69 -38 -130 -38 -130
-40 -162 -11 -202 25 -36 63 -52 212 -92 135 -36 152 -37 195 -11 47 29 42 14
199 560 35 124 94 326 130 450 36 124 124 430 196 680 72 250 161 556 196 680
36 124 86 295 110 380 25 85 47 164 49 174 3 11 19 65 36 120 17 55 33 108 34
116 2 8 38 132 79 275 42 143 78 268 81 279 2 10 22 80 44 155 86 297 324
1120 343 1186 11 39 20 84 20 101 0 39 -26 80 -62 99 -22 11 -132 45 -235 72
-47 13 -92 12 -122 -1z"/>
<path d="M1825 5184 c-16 -8 -434 -419 -927 -912 l-898 -897 0 -125 0 -125
902 -901 c497 -496 912 -906 923 -912 17 -8 44 -9 93 -4 21 3 245 226 266 266
42 79 83 32 -777 894 l-782 782 782 783 c429 430 784 793 788 805 17 57 -2 91
-122 213 -144 147 -182 168 -248 133z"/>
<path d="M5053 5171 c-60 -45 -242 -236 -247 -262 -3 -13 -4 -33 -2 -44 3 -11
5 -27 5 -35 1 -8 353 -367 783 -797 l783 -783 -777 -778 c-427 -427 -781 -786
-786 -798 -15 -29 -7 -88 16 -121 11 -15 69 -76 130 -135 113 -110 148 -130
204 -113 12 4 431 415 931 913 l907 907 0 125 0 125 -908 908 c-499 499 -914
908 -922 908 -73 7 -81 6 -117 -20z"/>
</g>
</svg>
